<svg width="558" height="107" viewBox="0 0 558 107" fill="none" xmlns="http://www.w3.org/2000/svg">
<g clip-path="url(#clip0_1_29)">
<path d="M33 0.25L65.75 54.75L33 74.25L0 54.75" fill="#1F41BB"/>
<path d="M33 39.75V74.25L65.75 54.75" fill="#17318C"/>
<path d="M33 80.5V107.25L65.75 61L33 80.5Z" fill="#1F41BB"/>
<path d="M33 0.25V39.75L0 54.75M0 61L33 80.5V107.25" fill="#9540FC"/>
<path d="M0 54.75L33 39.75V74.25" fill="#FC3C64"/>
</g>
<path d="M131.416 80H101.72C100.909 80 100.312 79.8293 99.928 79.488C99.5867 79.104 99.416 78.5067 99.416 77.696V36.224C99.416 35.4133 99.5867 34.8373 99.928 34.496C100.312 34.112 100.909 33.92 101.72 33.92H131.416C132.227 33.92 132.803 34.112 133.144 34.496C133.528 34.8373 133.72 35.4133 133.72 36.224V43.712C133.72 44.5227 133.528 45.12 133.144 45.504C132.803 45.8453 132.227 46.016 131.416 46.016H113.752V50.944H126.232C127.043 50.944 127.619 51.136 127.96 51.52C128.344 51.8613 128.536 52.4373 128.536 53.248V60.096C128.536 60.9067 128.344 61.504 127.96 61.888C127.619 62.2293 127.043 62.4 126.232 62.4H113.752V67.904H131.416C132.227 67.904 132.803 68.096 133.144 68.48C133.528 68.8213 133.72 69.3973 133.72 70.208V77.696C133.72 78.5067 133.528 79.104 133.144 79.488C132.803 79.8293 132.227 80 131.416 80ZM163.051 80H152.683C151.872 80 151.275 79.8293 150.891 79.488C150.55 79.104 150.379 78.5067 150.379 77.696V46.272H140.971C140.16 46.272 139.563 46.1013 139.179 45.76C138.838 45.376 138.667 44.7787 138.667 43.968V36.224C138.667 35.4133 138.838 34.8373 139.179 34.496C139.563 34.112 140.16 33.92 140.971 33.92H174.763C175.574 33.92 176.15 34.112 176.491 34.496C176.875 34.8373 177.067 35.4133 177.067 36.224V43.968C177.067 44.7787 176.875 45.376 176.491 45.76C176.15 46.1013 175.574 46.272 174.763 46.272H165.355V77.696C165.355 78.5067 165.163 79.104 164.779 79.488C164.438 79.8293 163.862 80 163.051 80ZM195.515 80H185.595C184.784 80 184.187 79.8293 183.803 79.488C183.462 79.104 183.291 78.5067 183.291 77.696V36.224C183.291 35.4133 183.462 34.8373 183.803 34.496C184.187 34.112 184.784 33.92 185.595 33.92H195.515C196.326 33.92 196.902 34.112 197.243 34.496C197.627 34.8373 197.819 35.4133 197.819 36.224V50.112H208.507V36.224C208.507 35.4133 208.678 34.8373 209.019 34.496C209.403 34.112 210 33.92 210.811 33.92H220.731C221.542 33.92 222.118 34.112 222.459 34.496C222.843 34.8373 223.035 35.4133 223.035 36.224V77.696C223.035 78.5067 222.843 79.104 222.459 79.488C222.118 79.8293 221.542 80 220.731 80H210.811C210 80 209.403 79.8293 209.019 79.488C208.678 79.104 208.507 78.5067 208.507 77.696V63.488H197.819V77.696C197.819 78.5067 197.627 79.104 197.243 79.488C196.902 79.8293 196.326 80 195.515 80ZM246.318 45.44V53.632H251.118C252.227 53.632 252.974 53.3547 253.358 52.8C253.742 52.2027 253.934 51.4773 253.934 50.624V48.448C253.934 47.5947 253.742 46.8907 253.358 46.336C252.974 45.7387 252.227 45.44 251.118 45.44H246.318ZM244.014 80H234.158C233.347 80 232.75 79.8293 232.366 79.488C232.024 79.104 231.854 78.5067 231.854 77.696V36.224C231.854 35.4133 232.024 34.8373 232.366 34.496C232.75 34.112 233.347 33.92 234.158 33.92H255.47C260.248 33.92 263.534 34.9227 265.326 36.928C267.16 38.8907 268.078 41.4507 268.078 44.608V47.552C268.078 49.344 267.8 50.88 267.246 52.16C266.734 53.3973 265.816 54.2933 264.494 54.848C266.798 55.104 268.654 56.0427 270.062 57.664C271.512 59.2853 272.238 61.44 272.238 64.128V77.696C272.238 78.5067 272.046 79.104 271.662 79.488C271.32 79.8293 270.744 80 269.934 80H260.014C259.203 80 258.606 79.8293 258.222 79.488C257.88 79.104 257.71 78.5067 257.71 77.696V67.904C257.71 66.9653 257.518 66.2827 257.134 65.856C256.792 65.3867 256.174 65.152 255.278 65.152H246.318V77.696C246.318 78.5067 246.126 79.104 245.742 79.488C245.4 79.8293 244.824 80 244.014 80ZM311.416 80H281.72C280.909 80 280.312 79.8293 279.928 79.488C279.587 79.104 279.416 78.5067 279.416 77.696V36.224C279.416 35.4133 279.587 34.8373 279.928 34.496C280.312 34.112 280.909 33.92 281.72 33.92H311.416C312.227 33.92 312.803 34.112 313.144 34.496C313.528 34.8373 313.72 35.4133 313.72 36.224V43.712C313.72 44.5227 313.528 45.12 313.144 45.504C312.803 45.8453 312.227 46.016 311.416 46.016H293.752V50.944H306.232C307.043 50.944 307.619 51.136 307.96 51.52C308.344 51.8613 308.536 52.4373 308.536 53.248V60.096C308.536 60.9067 308.344 61.504 307.96 61.888C307.619 62.2293 307.043 62.4 306.232 62.4H293.752V67.904H311.416C312.227 67.904 312.803 68.096 313.144 68.48C313.528 68.8213 313.72 69.3973 313.72 70.208V77.696C313.72 78.5067 313.528 79.104 313.144 79.488C312.803 79.8293 312.227 80 311.416 80ZM354.379 33.92H363.915C364.726 33.92 365.302 34.112 365.643 34.496C366.027 34.8373 366.219 35.4133 366.219 36.224V61.056C366.219 62.4213 366.155 63.7013 366.027 64.896C365.942 66.048 365.622 67.4133 365.067 68.992L361.867 77.696C361.654 78.336 361.334 78.8907 360.907 79.36C360.523 79.7867 359.99 80 359.307 80H350.795C350.112 80 349.494 79.8507 348.939 79.552C348.384 79.2533 348.022 78.7627 347.851 78.08L344.907 67.648C344.779 67.2213 344.608 66.944 344.395 66.816C344.224 66.6453 344.011 66.56 343.755 66.56H343.179C342.923 66.56 342.688 66.6453 342.475 66.816C342.304 66.944 342.155 67.2213 342.027 67.648L339.019 78.08C338.848 78.72 338.528 79.2107 338.059 79.552C337.59 79.8507 337.014 80 336.331 80H327.883C327.2 80 326.603 79.7867 326.091 79.36C325.622 78.9333 325.28 78.3787 325.067 77.696L321.867 68.864C321.312 67.2853 320.971 65.92 320.843 64.768C320.758 63.5733 320.715 62.2933 320.715 60.928V36.224C320.715 35.4133 320.886 34.8373 321.227 34.496C321.611 34.112 322.208 33.92 323.019 33.92H332.875C333.686 33.92 334.262 34.112 334.603 34.496C334.987 34.8373 335.179 35.4133 335.179 36.224V59.776L338.891 51.712C339.232 50.9867 339.68 50.4747 340.235 50.176C340.79 49.8773 341.472 49.728 342.283 49.728H344.971C345.782 49.728 346.464 49.8773 347.019 50.176C347.574 50.4747 348.022 50.9867 348.363 51.712L352.075 59.776V36.224C352.075 35.4133 352.246 34.8373 352.587 34.496C352.971 34.112 353.568 33.92 354.379 33.92ZM391.183 47.36L388.175 57.088H398.223L395.215 47.36C395.044 46.976 394.852 46.6987 394.639 46.528C394.468 46.3573 394.255 46.272 393.999 46.272H392.399C392.143 46.272 391.908 46.3573 391.695 46.528C391.524 46.6987 391.353 46.976 391.183 47.36ZM387.535 77.696C387.535 78.5067 387.343 79.104 386.958 79.488C386.617 79.8293 386.041 80 385.231 80H375.823C375.012 80 374.415 79.8293 374.031 79.488C373.689 79.104 373.519 78.5067 373.519 77.696V60.8C373.519 59.52 373.711 58.048 374.095 56.384C374.521 54.72 375.161 52.7787 376.015 50.56L381.583 36.032C381.839 35.3067 382.223 34.7733 382.735 34.432C383.289 34.0907 383.993 33.92 384.847 33.92H402.062C402.873 33.92 403.535 34.0907 404.047 34.432C404.601 34.7733 405.007 35.3067 405.263 36.032L410.831 50.56C411.684 52.7787 412.303 54.72 412.687 56.384C413.113 58.048 413.327 59.52 413.327 60.8V77.696C413.327 78.5067 413.135 79.104 412.751 79.488C412.409 79.8293 411.833 80 411.023 80H401.359C400.505 80 399.865 79.8293 399.439 79.488C399.055 79.104 398.863 78.5067 398.863 77.696V68.736H387.535V77.696ZM435.693 45.44V53.632H440.493C441.602 53.632 442.349 53.3547 442.733 52.8C443.117 52.2027 443.309 51.4773 443.309 50.624V48.448C443.309 47.5947 443.117 46.8907 442.733 46.336C442.349 45.7387 441.602 45.44 440.493 45.44H435.693ZM433.389 80H423.533C422.722 80 422.125 79.8293 421.741 79.488C421.399 79.104 421.229 78.5067 421.229 77.696V36.224C421.229 35.4133 421.399 34.8373 421.741 34.496C422.125 34.112 422.722 33.92 423.533 33.92H444.845C449.623 33.92 452.909 34.9227 454.701 36.928C456.535 38.8907 457.453 41.4507 457.453 44.608V47.552C457.453 49.344 457.175 50.88 456.621 52.16C456.109 53.3973 455.191 54.2933 453.869 54.848C456.173 55.104 458.029 56.0427 459.437 57.664C460.887 59.2853 461.613 61.44 461.613 64.128V77.696C461.613 78.5067 461.421 79.104 461.037 79.488C460.695 79.8293 460.119 80 459.309 80H449.389C448.578 80 447.981 79.8293 447.597 79.488C447.255 79.104 447.085 78.5067 447.085 77.696V67.904C447.085 66.9653 446.893 66.2827 446.509 65.856C446.167 65.3867 445.549 65.152 444.653 65.152H435.693V77.696C435.693 78.5067 435.501 79.104 435.117 79.488C434.775 79.8293 434.199 80 433.389 80ZM492.663 80H471.095C470.284 80 469.687 79.8293 469.303 79.488C468.962 79.104 468.791 78.5067 468.791 77.696V36.224C468.791 35.4133 468.962 34.8373 469.303 34.496C469.687 34.112 470.284 33.92 471.095 33.92H492.663C497.996 33.92 501.943 34.9867 504.503 37.12C507.106 39.2533 508.407 42.5387 508.407 46.976V66.944C508.407 71.3813 507.106 74.6667 504.503 76.8C501.943 78.9333 497.996 80 492.663 80ZM483.319 46.144V67.904H490.935C491.959 67.904 492.706 67.648 493.175 67.136C493.687 66.624 493.943 65.8347 493.943 64.768V49.216C493.943 48.1493 493.687 47.3813 493.175 46.912C492.706 46.4 491.959 46.144 490.935 46.144H483.319ZM537.917 80H517.693C516.882 80 516.285 79.8293 515.901 79.488C515.56 79.104 515.389 78.5067 515.389 77.696V70.208C515.389 69.3973 515.56 68.8213 515.901 68.48C516.285 68.096 516.882 67.904 517.693 67.904H534.909C535.464 67.904 535.869 67.7333 536.125 67.392C536.424 67.008 536.573 66.56 536.573 66.048C536.573 65.3227 536.424 64.7893 536.125 64.448C535.869 64.1067 535.464 63.9147 534.909 63.872L525.309 62.528C522.322 62.1013 519.912 61.12 518.077 59.584C516.285 58.048 515.389 55.488 515.389 51.904V45.184C515.389 41.5573 516.562 38.784 518.909 36.864C521.256 34.9013 524.498 33.92 528.637 33.92H546.557C547.368 33.92 547.944 34.112 548.285 34.496C548.669 34.8373 548.861 35.4133 548.861 36.224V43.84C548.861 44.6507 548.669 45.248 548.285 45.632C547.944 45.9733 547.368 46.144 546.557 46.144H531.645C531.09 46.144 530.664 46.336 530.365 46.72C530.066 47.0613 529.917 47.5093 529.917 48.064C529.917 48.6187 530.066 49.088 530.365 49.472C530.664 49.856 531.09 50.0693 531.645 50.112L541.181 51.392C544.168 51.8187 546.578 52.8 548.413 54.336C550.248 55.872 551.165 58.432 551.165 62.016V68.736C551.165 72.3627 549.97 75.1573 547.581 77.12C545.234 79.04 542.013 80 537.917 80Z" fill="#FF00FF"/>
<path d="M135.416 76H105.72C104.909 76 104.312 75.8293 103.928 75.488C103.587 75.104 103.416 74.5067 103.416 73.696V32.224C103.416 31.4133 103.587 30.8373 103.928 30.496C104.312 30.112 104.909 29.92 105.72 29.92H135.416C136.227 29.92 136.803 30.112 137.144 30.496C137.528 30.8373 137.72 31.4133 137.72 32.224V39.712C137.72 40.5227 137.528 41.12 137.144 41.504C136.803 41.8453 136.227 42.016 135.416 42.016H117.752V46.944H130.232C131.043 46.944 131.619 47.136 131.96 47.52C132.344 47.8613 132.536 48.4373 132.536 49.248V56.096C132.536 56.9067 132.344 57.504 131.96 57.888C131.619 58.2293 131.043 58.4 130.232 58.4H117.752V63.904H135.416C136.227 63.904 136.803 64.096 137.144 64.48C137.528 64.8213 137.72 65.3973 137.72 66.208V73.696C137.72 74.5067 137.528 75.104 137.144 75.488C136.803 75.8293 136.227 76 135.416 76ZM167.051 76H156.683C155.872 76 155.275 75.8293 154.891 75.488C154.55 75.104 154.379 74.5067 154.379 73.696V42.272H144.971C144.16 42.272 143.563 42.1013 143.179 41.76C142.838 41.376 142.667 40.7787 142.667 39.968V32.224C142.667 31.4133 142.838 30.8373 143.179 30.496C143.563 30.112 144.16 29.92 144.971 29.92H178.763C179.574 29.92 180.15 30.112 180.491 30.496C180.875 30.8373 181.067 31.4133 181.067 32.224V39.968C181.067 40.7787 180.875 41.376 180.491 41.76C180.15 42.1013 179.574 42.272 178.763 42.272H169.355V73.696C169.355 74.5067 169.163 75.104 168.779 75.488C168.438 75.8293 167.862 76 167.051 76ZM199.515 76H189.595C188.784 76 188.187 75.8293 187.803 75.488C187.462 75.104 187.291 74.5067 187.291 73.696V32.224C187.291 31.4133 187.462 30.8373 187.803 30.496C188.187 30.112 188.784 29.92 189.595 29.92H199.515C200.326 29.92 200.902 30.112 201.243 30.496C201.627 30.8373 201.819 31.4133 201.819 32.224V46.112H212.507V32.224C212.507 31.4133 212.678 30.8373 213.019 30.496C213.403 30.112 214 29.92 214.811 29.92H224.731C225.542 29.92 226.118 30.112 226.459 30.496C226.843 30.8373 227.035 31.4133 227.035 32.224V73.696C227.035 74.5067 226.843 75.104 226.459 75.488C226.118 75.8293 225.542 76 224.731 76H214.811C214 76 213.403 75.8293 213.019 75.488C212.678 75.104 212.507 74.5067 212.507 73.696V59.488H201.819V73.696C201.819 74.5067 201.627 75.104 201.243 75.488C200.902 75.8293 200.326 76 199.515 76ZM250.318 41.44V49.632H255.118C256.227 49.632 256.974 49.3547 257.358 48.8C257.742 48.2027 257.934 47.4773 257.934 46.624V44.448C257.934 43.5947 257.742 42.8907 257.358 42.336C256.974 41.7387 256.227 41.44 255.118 41.44H250.318ZM248.014 76H238.158C237.347 76 236.75 75.8293 236.366 75.488C236.024 75.104 235.854 74.5067 235.854 73.696V32.224C235.854 31.4133 236.024 30.8373 236.366 30.496C236.75 30.112 237.347 29.92 238.158 29.92H259.47C264.248 29.92 267.534 30.9227 269.326 32.928C271.16 34.8907 272.078 37.4507 272.078 40.608V43.552C272.078 45.344 271.8 46.88 271.246 48.16C270.734 49.3973 269.816 50.2933 268.494 50.848C270.798 51.104 272.654 52.0427 274.062 53.664C275.512 55.2853 276.238 57.44 276.238 60.128V73.696C276.238 74.5067 276.046 75.104 275.662 75.488C275.32 75.8293 274.744 76 273.934 76H264.014C263.203 76 262.606 75.8293 262.222 75.488C261.88 75.104 261.71 74.5067 261.71 73.696V63.904C261.71 62.9653 261.518 62.2827 261.134 61.856C260.792 61.3867 260.174 61.152 259.278 61.152H250.318V73.696C250.318 74.5067 250.126 75.104 249.742 75.488C249.4 75.8293 248.824 76 248.014 76ZM315.416 76H285.72C284.909 76 284.312 75.8293 283.928 75.488C283.587 75.104 283.416 74.5067 283.416 73.696V32.224C283.416 31.4133 283.587 30.8373 283.928 30.496C284.312 30.112 284.909 29.92 285.72 29.92H315.416C316.227 29.92 316.803 30.112 317.144 30.496C317.528 30.8373 317.72 31.4133 317.72 32.224V39.712C317.72 40.5227 317.528 41.12 317.144 41.504C316.803 41.8453 316.227 42.016 315.416 42.016H297.752V46.944H310.232C311.043 46.944 311.619 47.136 311.96 47.52C312.344 47.8613 312.536 48.4373 312.536 49.248V56.096C312.536 56.9067 312.344 57.504 311.96 57.888C311.619 58.2293 311.043 58.4 310.232 58.4H297.752V63.904H315.416C316.227 63.904 316.803 64.096 317.144 64.48C317.528 64.8213 317.72 65.3973 317.72 66.208V73.696C317.72 74.5067 317.528 75.104 317.144 75.488C316.803 75.8293 316.227 76 315.416 76ZM358.379 29.92H367.915C368.726 29.92 369.302 30.112 369.643 30.496C370.027 30.8373 370.219 31.4133 370.219 32.224V57.056C370.219 58.4213 370.155 59.7013 370.027 60.896C369.942 62.048 369.622 63.4133 369.067 64.992L365.867 73.696C365.654 74.336 365.334 74.8907 364.907 75.36C364.523 75.7867 363.99 76 363.307 76H354.795C354.112 76 353.494 75.8507 352.939 75.552C352.384 75.2533 352.022 74.7627 351.851 74.08L348.907 63.648C348.779 63.2213 348.608 62.944 348.395 62.816C348.224 62.6453 348.011 62.56 347.755 62.56H347.179C346.923 62.56 346.688 62.6453 346.475 62.816C346.304 62.944 346.155 63.2213 346.027 63.648L343.019 74.08C342.848 74.72 342.528 75.2107 342.059 75.552C341.59 75.8507 341.014 76 340.331 76H331.883C331.2 76 330.603 75.7867 330.091 75.36C329.622 74.9333 329.28 74.3787 329.067 73.696L325.867 64.864C325.312 63.2853 324.971 61.92 324.843 60.768C324.758 59.5733 324.715 58.2933 324.715 56.928V32.224C324.715 31.4133 324.886 30.8373 325.227 30.496C325.611 30.112 326.208 29.92 327.019 29.92H336.875C337.686 29.92 338.262 30.112 338.603 30.496C338.987 30.8373 339.179 31.4133 339.179 32.224V55.776L342.891 47.712C343.232 46.9867 343.68 46.4747 344.235 46.176C344.79 45.8773 345.472 45.728 346.283 45.728H348.971C349.782 45.728 350.464 45.8773 351.019 46.176C351.574 46.4747 352.022 46.9867 352.363 47.712L356.075 55.776V32.224C356.075 31.4133 356.246 30.8373 356.587 30.496C356.971 30.112 357.568 29.92 358.379 29.92ZM395.183 43.36L392.175 53.088H402.223L399.215 43.36C399.044 42.976 398.852 42.6987 398.639 42.528C398.468 42.3573 398.255 42.272 397.999 42.272H396.399C396.143 42.272 395.908 42.3573 395.695 42.528C395.524 42.6987 395.353 42.976 395.183 43.36ZM391.535 73.696C391.535 74.5067 391.343 75.104 390.958 75.488C390.617 75.8293 390.041 76 389.231 76H379.823C379.012 76 378.415 75.8293 378.031 75.488C377.689 75.104 377.519 74.5067 377.519 73.696V56.8C377.519 55.52 377.711 54.048 378.095 52.384C378.521 50.72 379.161 48.7787 380.015 46.56L385.583 32.032C385.839 31.3067 386.223 30.7733 386.735 30.432C387.289 30.0907 387.993 29.92 388.847 29.92H406.062C406.873 29.92 407.535 30.0907 408.047 30.432C408.601 30.7733 409.007 31.3067 409.263 32.032L414.831 46.56C415.684 48.7787 416.303 50.72 416.687 52.384C417.113 54.048 417.327 55.52 417.327 56.8V73.696C417.327 74.5067 417.135 75.104 416.751 75.488C416.409 75.8293 415.833 76 415.023 76H405.359C404.505 76 403.865 75.8293 403.439 75.488C403.055 75.104 402.863 74.5067 402.863 73.696V64.736H391.535V73.696ZM439.693 41.44V49.632H444.493C445.602 49.632 446.349 49.3547 446.733 48.8C447.117 48.2027 447.309 47.4773 447.309 46.624V44.448C447.309 43.5947 447.117 42.8907 446.733 42.336C446.349 41.7387 445.602 41.44 444.493 41.44H439.693ZM437.389 76H427.533C426.722 76 426.125 75.8293 425.741 75.488C425.399 75.104 425.229 74.5067 425.229 73.696V32.224C425.229 31.4133 425.399 30.8373 425.741 30.496C426.125 30.112 426.722 29.92 427.533 29.92H448.845C453.623 29.92 456.909 30.9227 458.701 32.928C460.535 34.8907 461.453 37.4507 461.453 40.608V43.552C461.453 45.344 461.175 46.88 460.621 48.16C460.109 49.3973 459.191 50.2933 457.869 50.848C460.173 51.104 462.029 52.0427 463.437 53.664C464.887 55.2853 465.613 57.44 465.613 60.128V73.696C465.613 74.5067 465.421 75.104 465.037 75.488C464.695 75.8293 464.119 76 463.309 76H453.389C452.578 76 451.981 75.8293 451.597 75.488C451.255 75.104 451.085 74.5067 451.085 73.696V63.904C451.085 62.9653 450.893 62.2827 450.509 61.856C450.167 61.3867 449.549 61.152 448.653 61.152H439.693V73.696C439.693 74.5067 439.501 75.104 439.117 75.488C438.775 75.8293 438.199 76 437.389 76ZM496.663 76H475.095C474.284 76 473.687 75.8293 473.303 75.488C472.962 75.104 472.791 74.5067 472.791 73.696V32.224C472.791 31.4133 472.962 30.8373 473.303 30.496C473.687 30.112 474.284 29.92 475.095 29.92H496.663C501.996 29.92 505.943 30.9867 508.503 33.12C511.106 35.2533 512.407 38.5387 512.407 42.976V62.944C512.407 67.3813 511.106 70.6667 508.503 72.8C505.943 74.9333 501.996 76 496.663 76ZM487.319 42.144V63.904H494.935C495.959 63.904 496.706 63.648 497.175 63.136C497.687 62.624 497.943 61.8347 497.943 60.768V45.216C497.943 44.1493 497.687 43.3813 497.175 42.912C496.706 42.4 495.959 42.144 494.935 42.144H487.319ZM541.917 76H521.693C520.882 76 520.285 75.8293 519.901 75.488C519.56 75.104 519.389 74.5067 519.389 73.696V66.208C519.389 65.3973 519.56 64.8213 519.901 64.48C520.285 64.096 520.882 63.904 521.693 63.904H538.909C539.464 63.904 539.869 63.7333 540.125 63.392C540.424 63.008 540.573 62.56 540.573 62.048C540.573 61.3227 540.424 60.7893 540.125 60.448C539.869 60.1067 539.464 59.9147 538.909 59.872L529.309 58.528C526.322 58.1013 523.912 57.12 522.077 55.584C520.285 54.048 519.389 51.488 519.389 47.904V41.184C519.389 37.5573 520.562 34.784 522.909 32.864C525.256 30.9013 528.498 29.92 532.637 29.92H550.557C551.368 29.92 551.944 30.112 552.285 30.496C552.669 30.8373 552.861 31.4133 552.861 32.224V39.84C552.861 40.6507 552.669 41.248 552.285 41.632C551.944 41.9733 551.368 42.144 550.557 42.144H535.645C535.09 42.144 534.664 42.336 534.365 42.72C534.066 43.0613 533.917 43.5093 533.917 44.064C533.917 44.6187 534.066 45.088 534.365 45.472C534.664 45.856 535.09 46.0693 535.645 46.112L545.181 47.392C548.168 47.8187 550.578 48.8 552.413 50.336C554.248 51.872 555.165 54.432 555.165 58.016V64.736C555.165 68.3627 553.97 71.1573 551.581 73.12C549.234 75.04 546.013 76 541.917 76Z" fill="#00FFFF"/>
<path d="M133.416 78H103.72C102.909 78 102.312 77.8293 101.928 77.488C101.587 77.104 101.416 76.5067 101.416 75.696V34.224C101.416 33.4133 101.587 32.8373 101.928 32.496C102.312 32.112 102.909 31.92 103.72 31.92H133.416C134.227 31.92 134.803 32.112 135.144 32.496C135.528 32.8373 135.72 33.4133 135.72 34.224V41.712C135.72 42.5227 135.528 43.12 135.144 43.504C134.803 43.8453 134.227 44.016 133.416 44.016H115.752V48.944H128.232C129.043 48.944 129.619 49.136 129.96 49.52C130.344 49.8613 130.536 50.4373 130.536 51.248V58.096C130.536 58.9067 130.344 59.504 129.96 59.888C129.619 60.2293 129.043 60.4 128.232 60.4H115.752V65.904H133.416C134.227 65.904 134.803 66.096 135.144 66.48C135.528 66.8213 135.72 67.3973 135.72 68.208V75.696C135.72 76.5067 135.528 77.104 135.144 77.488C134.803 77.8293 134.227 78 133.416 78ZM165.051 78H154.683C153.872 78 153.275 77.8293 152.891 77.488C152.55 77.104 152.379 76.5067 152.379 75.696V44.272H142.971C142.16 44.272 141.563 44.1013 141.179 43.76C140.838 43.376 140.667 42.7787 140.667 41.968V34.224C140.667 33.4133 140.838 32.8373 141.179 32.496C141.563 32.112 142.16 31.92 142.971 31.92H176.763C177.574 31.92 178.15 32.112 178.491 32.496C178.875 32.8373 179.067 33.4133 179.067 34.224V41.968C179.067 42.7787 178.875 43.376 178.491 43.76C178.15 44.1013 177.574 44.272 176.763 44.272H167.355V75.696C167.355 76.5067 167.163 77.104 166.779 77.488C166.438 77.8293 165.862 78 165.051 78ZM197.515 78H187.595C186.784 78 186.187 77.8293 185.803 77.488C185.462 77.104 185.291 76.5067 185.291 75.696V34.224C185.291 33.4133 185.462 32.8373 185.803 32.496C186.187 32.112 186.784 31.92 187.595 31.92H197.515C198.326 31.92 198.902 32.112 199.243 32.496C199.627 32.8373 199.819 33.4133 199.819 34.224V48.112H210.507V34.224C210.507 33.4133 210.678 32.8373 211.019 32.496C211.403 32.112 212 31.92 212.811 31.92H222.731C223.542 31.92 224.118 32.112 224.459 32.496C224.843 32.8373 225.035 33.4133 225.035 34.224V75.696C225.035 76.5067 224.843 77.104 224.459 77.488C224.118 77.8293 223.542 78 222.731 78H212.811C212 78 211.403 77.8293 211.019 77.488C210.678 77.104 210.507 76.5067 210.507 75.696V61.488H199.819V75.696C199.819 76.5067 199.627 77.104 199.243 77.488C198.902 77.8293 198.326 78 197.515 78ZM248.318 43.44V51.632H253.118C254.227 51.632 254.974 51.3547 255.358 50.8C255.742 50.2027 255.934 49.4773 255.934 48.624V46.448C255.934 45.5947 255.742 44.8907 255.358 44.336C254.974 43.7387 254.227 43.44 253.118 43.44H248.318ZM246.014 78H236.158C235.347 78 234.75 77.8293 234.366 77.488C234.024 77.104 233.854 76.5067 233.854 75.696V34.224C233.854 33.4133 234.024 32.8373 234.366 32.496C234.75 32.112 235.347 31.92 236.158 31.92H257.47C262.248 31.92 265.534 32.9227 267.326 34.928C269.16 36.8907 270.078 39.4507 270.078 42.608V45.552C270.078 47.344 269.8 48.88 269.246 50.16C268.734 51.3973 267.816 52.2933 266.494 52.848C268.798 53.104 270.654 54.0427 272.062 55.664C273.512 57.2853 274.238 59.44 274.238 62.128V75.696C274.238 76.5067 274.046 77.104 273.662 77.488C273.32 77.8293 272.744 78 271.934 78H262.014C261.203 78 260.606 77.8293 260.222 77.488C259.88 77.104 259.71 76.5067 259.71 75.696V65.904C259.71 64.9653 259.518 64.2827 259.134 63.856C258.792 63.3867 258.174 63.152 257.278 63.152H248.318V75.696C248.318 76.5067 248.126 77.104 247.742 77.488C247.4 77.8293 246.824 78 246.014 78ZM313.416 78H283.72C282.909 78 282.312 77.8293 281.928 77.488C281.587 77.104 281.416 76.5067 281.416 75.696V34.224C281.416 33.4133 281.587 32.8373 281.928 32.496C282.312 32.112 282.909 31.92 283.72 31.92H313.416C314.227 31.92 314.803 32.112 315.144 32.496C315.528 32.8373 315.72 33.4133 315.72 34.224V41.712C315.72 42.5227 315.528 43.12 315.144 43.504C314.803 43.8453 314.227 44.016 313.416 44.016H295.752V48.944H308.232C309.043 48.944 309.619 49.136 309.96 49.52C310.344 49.8613 310.536 50.4373 310.536 51.248V58.096C310.536 58.9067 310.344 59.504 309.96 59.888C309.619 60.2293 309.043 60.4 308.232 60.4H295.752V65.904H313.416C314.227 65.904 314.803 66.096 315.144 66.48C315.528 66.8213 315.72 67.3973 315.72 68.208V75.696C315.72 76.5067 315.528 77.104 315.144 77.488C314.803 77.8293 314.227 78 313.416 78ZM356.379 31.92H365.915C366.726 31.92 367.302 32.112 367.643 32.496C368.027 32.8373 368.219 33.4133 368.219 34.224V59.056C368.219 60.4213 368.155 61.7013 368.027 62.896C367.942 64.048 367.622 65.4133 367.067 66.992L363.867 75.696C363.654 76.336 363.334 76.8907 362.907 77.36C362.523 77.7867 361.99 78 361.307 78H352.795C352.112 78 351.494 77.8507 350.939 77.552C350.384 77.2533 350.022 76.7627 349.851 76.08L346.907 65.648C346.779 65.2213 346.608 64.944 346.395 64.816C346.224 64.6453 346.011 64.56 345.755 64.56H345.179C344.923 64.56 344.688 64.6453 344.475 64.816C344.304 64.944 344.155 65.2213 344.027 65.648L341.019 76.08C340.848 76.72 340.528 77.2107 340.059 77.552C339.59 77.8507 339.014 78 338.331 78H329.883C329.2 78 328.603 77.7867 328.091 77.36C327.622 76.9333 327.28 76.3787 327.067 75.696L323.867 66.864C323.312 65.2853 322.971 63.92 322.843 62.768C322.758 61.5733 322.715 60.2933 322.715 58.928V34.224C322.715 33.4133 322.886 32.8373 323.227 32.496C323.611 32.112 324.208 31.92 325.019 31.92H334.875C335.686 31.92 336.262 32.112 336.603 32.496C336.987 32.8373 337.179 33.4133 337.179 34.224V57.776L340.891 49.712C341.232 48.9867 341.68 48.4747 342.235 48.176C342.79 47.8773 343.472 47.728 344.283 47.728H346.971C347.782 47.728 348.464 47.8773 349.019 48.176C349.574 48.4747 350.022 48.9867 350.363 49.712L354.075 57.776V34.224C354.075 33.4133 354.246 32.8373 354.587 32.496C354.971 32.112 355.568 31.92 356.379 31.92ZM393.183 45.36L390.175 55.088H400.223L397.215 45.36C397.044 44.976 396.852 44.6987 396.639 44.528C396.468 44.3573 396.255 44.272 395.999 44.272H394.399C394.143 44.272 393.908 44.3573 393.695 44.528C393.524 44.6987 393.353 44.976 393.183 45.36ZM389.535 75.696C389.535 76.5067 389.343 77.104 388.958 77.488C388.617 77.8293 388.041 78 387.231 78H377.823C377.012 78 376.415 77.8293 376.031 77.488C375.689 77.104 375.519 76.5067 375.519 75.696V58.8C375.519 57.52 375.711 56.048 376.095 54.384C376.521 52.72 377.161 50.7787 378.015 48.56L383.583 34.032C383.839 33.3067 384.223 32.7733 384.735 32.432C385.289 32.0907 385.993 31.92 386.847 31.92H404.062C404.873 31.92 405.535 32.0907 406.047 32.432C406.601 32.7733 407.007 33.3067 407.263 34.032L412.831 48.56C413.684 50.7787 414.303 52.72 414.687 54.384C415.113 56.048 415.327 57.52 415.327 58.8V75.696C415.327 76.5067 415.135 77.104 414.751 77.488C414.409 77.8293 413.833 78 413.023 78H403.359C402.505 78 401.865 77.8293 401.439 77.488C401.055 77.104 400.863 76.5067 400.863 75.696V66.736H389.535V75.696ZM437.693 43.44V51.632H442.493C443.602 51.632 444.349 51.3547 444.733 50.8C445.117 50.2027 445.309 49.4773 445.309 48.624V46.448C445.309 45.5947 445.117 44.8907 444.733 44.336C444.349 43.7387 443.602 43.44 442.493 43.44H437.693ZM435.389 78H425.533C424.722 78 424.125 77.8293 423.741 77.488C423.399 77.104 423.229 76.5067 423.229 75.696V34.224C423.229 33.4133 423.399 32.8373 423.741 32.496C424.125 32.112 424.722 31.92 425.533 31.92H446.845C451.623 31.92 454.909 32.9227 456.701 34.928C458.535 36.8907 459.453 39.4507 459.453 42.608V45.552C459.453 47.344 459.175 48.88 458.621 50.16C458.109 51.3973 457.191 52.2933 455.869 52.848C458.173 53.104 460.029 54.0427 461.437 55.664C462.887 57.2853 463.613 59.44 463.613 62.128V75.696C463.613 76.5067 463.421 77.104 463.037 77.488C462.695 77.8293 462.119 78 461.309 78H451.389C450.578 78 449.981 77.8293 449.597 77.488C449.255 77.104 449.085 76.5067 449.085 75.696V65.904C449.085 64.9653 448.893 64.2827 448.509 63.856C448.167 63.3867 447.549 63.152 446.653 63.152H437.693V75.696C437.693 76.5067 437.501 77.104 437.117 77.488C436.775 77.8293 436.199 78 435.389 78ZM494.663 78H473.095C472.284 78 471.687 77.8293 471.303 77.488C470.962 77.104 470.791 76.5067 470.791 75.696V34.224C470.791 33.4133 470.962 32.8373 471.303 32.496C471.687 32.112 472.284 31.92 473.095 31.92H494.663C499.996 31.92 503.943 32.9867 506.503 35.12C509.106 37.2533 510.407 40.5387 510.407 44.976V64.944C510.407 69.3813 509.106 72.6667 506.503 74.8C503.943 76.9333 499.996 78 494.663 78ZM485.319 44.144V65.904H492.935C493.959 65.904 494.706 65.648 495.175 65.136C495.687 64.624 495.943 63.8347 495.943 62.768V47.216C495.943 46.1493 495.687 45.3813 495.175 44.912C494.706 44.4 493.959 44.144 492.935 44.144H485.319ZM539.917 78H519.693C518.882 78 518.285 77.8293 517.901 77.488C517.56 77.104 517.389 76.5067 517.389 75.696V68.208C517.389 67.3973 517.56 66.8213 517.901 66.48C518.285 66.096 518.882 65.904 519.693 65.904H536.909C537.464 65.904 537.869 65.7333 538.125 65.392C538.424 65.008 538.573 64.56 538.573 64.048C538.573 63.3227 538.424 62.7893 538.125 62.448C537.869 62.1067 537.464 61.9147 536.909 61.872L527.309 60.528C524.322 60.1013 521.912 59.12 520.077 57.584C518.285 56.048 517.389 53.488 517.389 49.904V43.184C517.389 39.5573 518.562 36.784 520.909 34.864C523.256 32.9013 526.498 31.92 530.637 31.92H548.557C549.368 31.92 549.944 32.112 550.285 32.496C550.669 32.8373 550.861 33.4133 550.861 34.224V41.84C550.861 42.6507 550.669 43.248 550.285 43.632C549.944 43.9733 549.368 44.144 548.557 44.144H533.645C533.09 44.144 532.664 44.336 532.365 44.72C532.066 45.0613 531.917 45.5093 531.917 46.064C531.917 46.6187 532.066 47.088 532.365 47.472C532.664 47.856 533.09 48.0693 533.645 48.112L543.181 49.392C546.168 49.8187 548.578 50.8 550.413 52.336C552.248 53.872 553.165 56.432 553.165 60.016V66.736C553.165 70.3627 551.97 73.1573 549.581 75.12C547.234 77.04 544.013 78 539.917 78Z" fill="#101728"/>
<defs>
<clipPath id="clip0_1_29">
<rect width="66" height="107" fill="white"/>
</clipPath>
</defs>
</svg>
